<svg viewBox="0 0 687.7777099609375 399.9999694824219" xmlns="http://www.w3.org/2000/svg"><g><g><g><g><g><line x1="52.25" y1="375" x2="47.25" y2="375" style="visibility: inherit;" fill="rgb(0, 0, 0)" stroke="rgb(204, 204, 204)" stroke-width="1px"></line><line x1="52.25" y1="340.90909090909093" x2="47.25" y2="340.90909090909093" style="visibility: inherit;" fill="rgb(0, 0, 0)" stroke="rgb(204, 204, 204)" stroke-width="1px"></line><line x1="52.25" y1="306.8181818181818" x2="47.25" y2="306.8181818181818" style="visibility: inherit;" fill="rgb(0, 0, 0)" stroke="rgb(204, 204, 204)" stroke-width="1px"></line><line x1="52.25" y1="272.72727272727275" x2="47.25" y2="272.72727272727275" style="visibility: inherit;" fill="rgb(0, 0, 0)" stroke="rgb(204, 204, 204)" stroke-width="1px"></line><line x1="52.25" y1="238.63636363636363" x2="47.25" y2="238.63636363636363" style="visibility: inherit;" fill="rgb(0, 0, 0)" stroke="rgb(204, 204, 204)" stroke-width="1px"></line><line x1="52.25" y1="204.54545454545462" x2="47.25" y2="204.54545454545462" style="visibility: inherit;" fill="rgb(0, 0, 0)" stroke="rgb(204, 204, 204)" stroke-width="1px"></line><line x1="52.25" y1="170.45454545454547" x2="47.25" y2="170.45454545454547" style="visibility: inherit;" fill="rgb(0, 0, 0)" stroke="rgb(204, 204, 204)" stroke-width="1px"></line><line x1="52.25" y1="136.36363636363637" x2="47.25" y2="136.36363636363637" style="visibility: inherit;" fill="rgb(0, 0, 0)" stroke="rgb(204, 204, 204)" stroke-width="1px"></line><line x1="52.25" y1="102.27272727272731" x2="47.25" y2="102.27272727272731" style="visibility: inherit;" fill="rgb(0, 0, 0)" stroke="rgb(204, 204, 204)" stroke-width="1px"></line><line x1="52.25" y1="68.1818181818182" x2="47.25" y2="68.1818181818182" style="visibility: inherit;" fill="rgb(0, 0, 0)" stroke="rgb(204, 204, 204)" stroke-width="1px"></line><line x1="52.25" y1="34.09090909090914" x2="47.25" y2="34.09090909090914" style="visibility: inherit;" fill="rgb(0, 0, 0)" stroke="rgb(204, 204, 204)" stroke-width="1px"></line><line x1="52.25" y1="0" x2="47.25" y2="0" style="visibility: inherit;" fill="rgb(0, 0, 0)" stroke="rgb(204, 204, 204)" stroke-width="1px"></line></g><g transform="translate(42.25, 0)"><text x="0" y="375" dx="0em" dy="0.3em" style="text-anchor: end; visibility: hidden; font-family: Roboto, sans-serif; font-size: 12px; font-weight: 200;" fill="rgb(33, 33, 33)" stroke="none" stroke-width="1px">0.45</text><text x="0" y="340.90909090909093" dx="0em" dy="0.3em" style="text-anchor: end; visibility: inherit; font-family: Roboto, sans-serif; font-size: 12px; font-weight: 200;" fill="rgb(33, 33, 33)" stroke="none" stroke-width="1px">0.5</text><text x="0" y="306.8181818181818" dx="0em" dy="0.3em" style="text-anchor: end; visibility: inherit; font-family: Roboto, sans-serif; font-size: 12px; font-weight: 200;" fill="rgb(33, 33, 33)" stroke="none" stroke-width="1px">0.55</text><text x="0" y="272.72727272727275" dx="0em" dy="0.3em" style="text-anchor: end; visibility: inherit; font-family: Roboto, sans-serif; font-size: 12px; font-weight: 200;" fill="rgb(33, 33, 33)" stroke="none" stroke-width="1px">0.6</text><text x="0" y="238.63636363636363" dx="0em" dy="0.3em" style="text-anchor: end; visibility: inherit; font-family: Roboto, sans-serif; font-size: 12px; font-weight: 200;" fill="rgb(33, 33, 33)" stroke="none" stroke-width="1px">0.65</text><text x="0" y="204.54545454545462" dx="0em" dy="0.3em" style="text-anchor: end; visibility: inherit; font-family: Roboto, sans-serif; font-size: 12px; font-weight: 200;" fill="rgb(33, 33, 33)" stroke="none" stroke-width="1px">0.7</text><text x="0" y="170.45454545454547" dx="0em" dy="0.3em" style="text-anchor: end; visibility: inherit; font-family: Roboto, sans-serif; font-size: 12px; font-weight: 200;" fill="rgb(33, 33, 33)" stroke="none" stroke-width="1px">0.75</text><text x="0" y="136.36363636363637" dx="0em" dy="0.3em" style="text-anchor: end; visibility: inherit; font-family: Roboto, sans-serif; font-size: 12px; font-weight: 200;" fill="rgb(33, 33, 33)" stroke="none" stroke-width="1px">0.8</text><text x="0" y="102.27272727272731" dx="0em" dy="0.3em" style="text-anchor: end; visibility: inherit; font-family: Roboto, sans-serif; font-size: 12px; font-weight: 200;" fill="rgb(33, 33, 33)" stroke="none" stroke-width="1px">0.85</text><text x="0" y="68.1818181818182" dx="0em" dy="0.3em" style="text-anchor: end; visibility: inherit; font-family: Roboto, sans-serif; font-size: 12px; font-weight: 200;" fill="rgb(33, 33, 33)" stroke="none" stroke-width="1px">0.9</text><text x="0" y="34.09090909090914" dx="0em" dy="0.3em" style="text-anchor: end; visibility: inherit; font-family: Roboto, sans-serif; font-size: 12px; font-weight: 200;" fill="rgb(33, 33, 33)" stroke="none" stroke-width="1px">0.95</text><text x="0" y="0" dx="0em" dy="0.3em" style="text-anchor: end; visibility: hidden; font-family: Roboto, sans-serif; font-size: 12px; font-weight: 200;" fill="rgb(33, 33, 33)" stroke="none" stroke-width="1px">1</text></g><line x1="52.25" y1="0" x2="52.25" y2="375" fill="rgb(0, 0, 0)" stroke="rgb(204, 204, 204)" stroke-width="1px"></line></g></g><g transform="translate(52, 0)" clip-path="url(#clip_0)"><clipPath id="clip_0"><rect width="635" height="375"></rect></clipPath><g><g><g><line x1="0" y1="0" x2="0" y2="375" fill="rgb(0, 0, 0)" stroke="rgb(66, 66, 66)" stroke-width="1px" opacity="0.25"></line><line x1="45.39485714285714" y1="0" x2="45.39485714285714" y2="375" fill="rgb(0, 0, 0)" stroke="rgb(66, 66, 66)" stroke-width="1px" opacity="0.25"></line><line x1="90.78971428571428" y1="0" x2="90.78971428571428" y2="375" fill="rgb(0, 0, 0)" stroke="rgb(66, 66, 66)" stroke-width="1px" opacity="0.25"></line><line x1="136.18457142857142" y1="0" x2="136.18457142857142" y2="375" fill="rgb(0, 0, 0)" stroke="rgb(66, 66, 66)" stroke-width="1px" opacity="0.25"></line><line x1="181.57942857142856" y1="0" x2="181.57942857142856" y2="375" fill="rgb(0, 0, 0)" stroke="rgb(66, 66, 66)" stroke-width="1px" opacity="0.25"></line><line x1="226.9742857142857" y1="0" x2="226.9742857142857" y2="375" fill="rgb(0, 0, 0)" stroke="rgb(66, 66, 66)" stroke-width="1px" opacity="0.25"></line><line x1="272.36914285714283" y1="0" x2="272.36914285714283" y2="375" fill="rgb(0, 0, 0)" stroke="rgb(66, 66, 66)" stroke-width="1px" opacity="0.25"></line><line x1="317.764" y1="0" x2="317.764" y2="375" fill="rgb(0, 0, 0)" stroke="rgb(66, 66, 66)" stroke-width="1px" opacity="0.25"></line><line x1="363.15885714285713" y1="0" x2="363.15885714285713" y2="375" fill="rgb(0, 0, 0)" stroke="rgb(66, 66, 66)" stroke-width="1px" opacity="0.25"></line><line x1="408.5537142857143" y1="0" x2="408.5537142857143" y2="375" fill="rgb(0, 0, 0)" stroke="rgb(66, 66, 66)" stroke-width="1px" opacity="0.25"></line><line x1="453.9485714285714" y1="0" x2="453.9485714285714" y2="375" fill="rgb(0, 0, 0)" stroke="rgb(66, 66, 66)" stroke-width="1px" opacity="0.25"></line><line x1="499.3434285714286" y1="0" x2="499.3434285714286" y2="375" fill="rgb(0, 0, 0)" stroke="rgb(66, 66, 66)" stroke-width="1px" opacity="0.25"></line><line x1="544.7382857142857" y1="0" x2="544.7382857142857" y2="375" fill="rgb(0, 0, 0)" stroke="rgb(66, 66, 66)" stroke-width="1px" opacity="0.25"></line><line x1="590.1331428571428" y1="0" x2="590.1331428571428" y2="375" fill="rgb(0, 0, 0)" stroke="rgb(66, 66, 66)" stroke-width="1px" opacity="0.25"></line><line x1="635.528" y1="0" x2="635.528" y2="375" fill="rgb(0, 0, 0)" stroke="rgb(66, 66, 66)" stroke-width="1px" opacity="0.25"></line></g><g><line x1="0" y1="375" x2="635.528" y2="375" fill="rgb(0, 0, 0)" stroke="rgb(66, 66, 66)" stroke-width="1px" opacity="0.25"></line><line x1="0" y1="340.90909090909093" x2="635.528" y2="340.90909090909093" fill="rgb(0, 0, 0)" stroke="rgb(66, 66, 66)" stroke-width="1px" opacity="0.25"></line><line x1="0" y1="306.8181818181818" x2="635.528" y2="306.8181818181818" fill="rgb(0, 0, 0)" stroke="rgb(66, 66, 66)" stroke-width="1px" opacity="0.25"></line><line x1="0" y1="272.72727272727275" x2="635.528" y2="272.72727272727275" fill="rgb(0, 0, 0)" stroke="rgb(66, 66, 66)" stroke-width="1px" opacity="0.25"></line><line x1="0" y1="238.63636363636363" x2="635.528" y2="238.63636363636363" fill="rgb(0, 0, 0)" stroke="rgb(66, 66, 66)" stroke-width="1px" opacity="0.25"></line><line x1="0" y1="204.54545454545462" x2="635.528" y2="204.54545454545462" fill="rgb(0, 0, 0)" stroke="rgb(66, 66, 66)" stroke-width="1px" opacity="0.25"></line><line x1="0" y1="170.45454545454547" x2="635.528" y2="170.45454545454547" fill="rgb(0, 0, 0)" stroke="rgb(66, 66, 66)" stroke-width="1px" opacity="0.25"></line><line x1="0" y1="136.36363636363637" x2="635.528" y2="136.36363636363637" fill="rgb(0, 0, 0)" stroke="rgb(66, 66, 66)" stroke-width="1px" opacity="0.25"></line><line x1="0" y1="102.27272727272731" x2="635.528" y2="102.27272727272731" fill="rgb(0, 0, 0)" stroke="rgb(66, 66, 66)" stroke-width="1px" opacity="0.25"></line><line x1="0" y1="68.1818181818182" x2="635.528" y2="68.1818181818182" fill="rgb(0, 0, 0)" stroke="rgb(66, 66, 66)" stroke-width="1px" opacity="0.25"></line><line x1="0" y1="34.09090909090914" x2="635.528" y2="34.09090909090914" fill="rgb(0, 0, 0)" stroke="rgb(66, 66, 66)" stroke-width="1px" opacity="0.25"></line><line x1="0" y1="0" x2="635.528" y2="0" fill="rgb(0, 0, 0)" stroke="rgb(66, 66, 66)" stroke-width="1px" opacity="0.25"></line></g></g></g><g><g><line x1="0" y1="681.8181818181818" x2="635.528" y2="681.8181818181818" fill="rgb(0, 0, 0)" stroke="rgb(153, 153, 153)" stroke-width="1.5px"></line></g></g><g><g><line x1="45.39485714285714" y1="0" x2="45.39485714285714" y2="375" fill="rgb(0, 0, 0)" stroke="rgb(153, 153, 153)" stroke-width="1.5px"></line></g></g><g><g><g><g><g><path stroke="rgb(66, 80, 102)" stroke-width="2px" d="M49.93434285714286,344.6553444320505L54.47382857142858,334.6653147177263L59.01331428571429,337.162817066366L63.552800000000005,339.6603194150058L68.09228571428571,282.21776539629155L72.63177142857143,259.7402442585339L77.17125714285714,274.7252583503723L81.71074285714285,284.71526774493134L86.25022857142856,292.2077747908506L90.78971428571428,302.19778418540955L95.3292,297.2027794881301L99.86868571428572,294.7052771394903L104.40817142857144,304.6952865340493L108.94765714285715,304.6952865340493L113.48714285714286,304.6952865340493L118.02662857142857,297.2027794881301L122.56611428571429,297.2027794881301L127.10560000000001,312.18779357996857L131.64508571428573,297.2027794881301L136.18457142857142,302.19778418540955L140.72405714285713,292.2077747908506L145.26354285714285,287.21277009357107L149.80302857142857,294.7052771394903L154.3425142857143,289.71027244221085L158.882,294.7052771394903L163.4214857142857,282.21776539629155L167.96097142857144,264.73524895581335L172.50045714285713,272.2277560017326L177.03994285714288,279.72026304765177L181.57942857142856,269.73025365309286L186.1189142857143,249.7502348639748L190.6584,254.74523956125435L195.19788571428575,264.73524895581335L199.73737142857144,247.25273251533508L204.27685714285715,239.76022546941587L208.81634285714287,234.7652207721364L213.35582857142856,209.79019728573888L217.8953142857143,232.26771842349663L222.4348,222.27770902893758L226.9742857142857,217.28270433165812L231.51377142857143,202.29769023981962L236.05325714285715,197.30268554254013L240.59274285714287,202.29769023981962L245.13222857142858,184.8151737993414L249.6717142857143,209.79019728573888L254.21120000000002,172.32766205614266L258.75068571428574,187.31267614798114L263.29017142857145,157.34264796430418L267.8296571428572,174.82516440478238L272.36914285714283,149.85014091838494L276.9086285714286,164.83515501022342L281.44811428571427,149.85014091838494L285.98760000000004,134.86512682654643L290.5270857142857,139.86013152382594L295.0665714285714,119.88011273470794L299.60605714285714,139.86013152382594L304.14554285714286,114.88510803742845L308.6850285714286,124.87511743198745L313.2245142857143,104.89509864286944L317.764,109.89010334014897L322.3034857142857,104.89509864286944L326.8429714285714,97.40259159695022L331.38245714285716,94.90508924831047L335.9219428571429,97.40259159695022L340.4614285714286,77.42257280783221L345.00091428571426,87.41258220239122L349.54040000000003,77.42257280783221L354.07988571428575,87.41258220239122L358.6193714285714,84.91507985375148L363.15885714285713,84.91507985375148L367.6983428571429,77.42257280783221L372.2378285714286,59.94005636735399L376.7773142857143,72.42756811055273L381.3168,79.920075156472L385.8562857142857,59.94005636735399L390.3957714285715,57.44255401871425L394.93525714285715,72.42756811055273L399.47474285714287,79.920075156472L404.01422857142853,59.94005636735399L408.5537142857143,79.920075156472L413.0932,62.437558715993724L417.63268571428574,57.44255401871425L422.1721714285714,64.93506106463352L426.7116571428571,54.945051670074506L431.2511428571429,54.945051670074506L435.7906285714286,54.945051670074506L440.3301142857143,59.94005636735399L444.8696,49.95004697279498L449.40908571428577,62.437558715993724L453.9485714285714,49.95004697279498L458.48805714285714,39.96003757823602L463.02754285714286,52.447549321434764L467.56702857142864,42.45753992687576L472.1065142857143,52.447549321434764L476.646,49.95004697279498L481.18548571428573,42.45753992687576L485.7249714285714,34.96503288095649L490.26445714285717,39.96003757823602L494.8039428571429,42.45753992687576L499.3434285714286,47.45254462415524L503.88291428571426,47.45254462415524L508.42240000000004,32.467530532316715L512.9618857142857,47.45254462415524L517.5013714285715,44.9550422755155L522.0408571428571,44.9550422755155L526.5803428571429,47.45254462415524L531.1198285714286,42.45753992687576L535.6593142857143,44.9550422755155L540.1988,29.970028183676973L544.7382857142857,29.970028183676973L549.2777714285714,37.46253522959628L553.8172571428572,34.96503288095649L558.3567428571429,44.9550422755155L562.8962285714285,34.96503288095649L567.4357142857143,54.945051670074506L571.9752000000001,32.467530532316715L576.5146857142857,34.96503288095649L581.0541714285714,14.985014091838487L585.5936571428572,17.48251644047823L590.1331428571428,39.96003757823602" style="fill: none;" fill="none"></path></g><g><path stroke="rgb(124, 179, 66)" stroke-width="2px" d="M49.93434285714286,337.162817066366L54.47382857142858,337.162817066366L59.01331428571429,337.162817066366L63.552800000000005,337.162817066366L68.09228571428571,337.162817066366L72.63177142857143,337.162817066366L77.17125714285714,337.162817066366L81.71074285714285,337.162817066366L86.25022857142856,337.162817066366L90.78971428571428,337.162817066366L95.3292,337.162817066366L99.86868571428572,337.162817066366L104.40817142857144,337.162817066366L108.94765714285715,337.162817066366L113.48714285714286,337.162817066366L118.02662857142857,337.162817066366L122.56611428571429,334.6653147177263L127.10560000000001,337.162817066366L131.64508571428573,337.162817066366L136.18457142857142,337.162817066366L140.72405714285713,337.162817066366L145.26354285714285,337.162817066366L149.80302857142857,334.6653147177263L154.3425142857143,334.6653147177263L158.882,334.6653147177263L163.4214857142857,327.17280767180705L167.96097142857144,332.1678123690865L172.50045714285713,329.6703100204468L177.03994285714288,322.17780297452754L181.57942857142856,327.17280767180705L186.1189142857143,317.1827982772481L190.6584,309.6902912313288L195.19788571428575,309.6902912313288L199.73737142857144,297.2027794881301L204.27685714285715,302.19778418540955L208.81634285714287,279.72026304765177L213.35582857142856,267.2327513044531L217.8953142857143,269.73025365309286L222.4348,257.2427419098941L226.9742857142857,257.2427419098941L231.51377142857143,257.2427419098941L236.05325714285715,244.75523016669536L240.59274285714287,259.7402442585339L245.13222857142858,247.25273251533508L249.6717142857143,227.27271372621712L254.21120000000002,214.78520198301837L258.75068571428574,217.28270433165812L263.29017142857145,212.28769963437864L267.8296571428572,187.31267614798114L272.36914285714283,204.7951925884594L276.9086285714286,179.82016910206193L281.44811428571427,167.33265735886317L285.98760000000004,187.31267614798114L290.5270857142857,184.8151737993414L295.0665714285714,174.82516440478238L299.60605714285714,164.83515501022342L304.14554285714286,127.37261978062719L308.6850285714286,149.85014091838494L313.2245142857143,139.86013152382594L317.764,132.36762447790667L322.3034857142857,139.86013152382594L326.8429714285714,142.35763387246567L331.38245714285716,149.85014091838494L335.9219428571429,137.36262917518619L340.4614285714286,124.87511743198745L345.00091428571426,122.3776150833477L349.54040000000003,119.88011273470794L354.07988571428575,119.88011273470794L358.6193714285714,112.38760568878871L363.15885714285713,107.39260099150923L367.6983428571429,104.89509864286944L372.2378285714286,122.3776150833477L376.7773142857143,99.90009394558996L381.3168,109.89010334014897L385.8562857142857,102.3975962942297L390.3957714285715,114.88510803742845L394.93525714285715,99.90009394558996L399.47474285714287,94.90508924831047L404.01422857142853,82.41757750511174L408.5537142857143,87.41258220239122L413.0932,82.41757750511174L417.63268571428574,99.90009394558996L422.1721714285714,82.41757750511174L426.7116571428571,94.90508924831047L431.2511428571429,87.41258220239122L435.7906285714286,82.41757750511174L440.3301142857143,79.920075156472L444.8696,67.43256341327324L449.40908571428577,102.3975962942297L453.9485714285714,84.91507985375148L458.48805714285714,89.91008455103096L463.02754285714286,79.920075156472L467.56702857142864,84.91507985375148L472.1065142857143,62.437558715993724L476.646,69.93006576191299L481.18548571428573,74.92507045919247L485.7249714285714,59.94005636735399L490.26445714285717,54.945051670074506L494.8039428571429,69.93006576191299L499.3434285714286,67.43256341327324L503.88291428571426,64.93506106463352L508.42240000000004,72.42756811055273L512.9618857142857,54.945051670074506L517.5013714285715,57.44255401871425L522.0408571428571,74.92507045919247L526.5803428571429,47.45254462415524L531.1198285714286,52.447549321434764L535.6593142857143,62.437558715993724L540.1988,57.44255401871425L544.7382857142857,57.44255401871425L549.2777714285714,62.437558715993724L553.8172571428572,47.45254462415524L558.3567428571429,62.437558715993724L562.8962285714285,59.94005636735399L567.4357142857143,57.44255401871425L571.9752000000001,44.9550422755155L576.5146857142857,54.945051670074506L581.0541714285714,59.94005636735399L585.5936571428572,37.46253522959628L590.1331428571428,59.94005636735399" style="fill: none;" fill="none"></path></g><g><path stroke="rgb(147, 52, 230)" stroke-width="2px" d="M49.93434285714286,337.162817066366L54.47382857142858,337.162817066366L59.01331428571429,337.162817066366L63.552800000000005,337.162817066366L68.09228571428571,337.162817066366L72.63177142857143,337.162817066366L77.17125714285714,337.162817066366L81.71074285714285,337.162817066366L86.25022857142856,337.162817066366L90.78971428571428,337.162817066366L95.3292,337.162817066366L99.86868571428572,337.162817066366L104.40817142857144,337.162817066366L108.94765714285715,337.162817066366L113.48714285714286,337.162817066366L118.02662857142857,337.162817066366L122.56611428571429,337.162817066366L127.10560000000001,337.162817066366L131.64508571428573,337.162817066366L136.18457142857142,337.162817066366L140.72405714285713,337.162817066366L145.26354285714285,337.162817066366L149.80302857142857,334.6653147177263L154.3425142857143,332.1678123690865L158.882,324.6753053231673L163.4214857142857,324.6753053231673L167.96097142857144,309.6902912313288L172.50045714285713,304.6952865340493L177.03994285714288,304.6952865340493L181.57942857142856,292.2077747908506L186.1189142857143,287.21277009357107L190.6584,277.22276069901204L195.19788571428575,259.7402442585339L199.73737142857144,264.73524895581335L204.27685714285715,244.75523016669536L208.81634285714287,239.76022546941587L213.35582857142856,237.26272312077612L217.8953142857143,212.28769963437864L222.4348,202.29769023981962L226.9742857142857,202.29769023981962L231.51377142857143,189.8101784966209L236.05325714285715,189.8101784966209L240.59274285714287,177.32266675342214L245.13222857142858,172.32766205614266L249.6717142857143,154.84514561566442L254.21120000000002,169.8301597075029L258.75068571428574,142.35763387246567L263.29017142857145,137.36262917518619L267.8296571428572,164.83515501022342L272.36914285714283,122.3776150833477L276.9086285714286,132.36762447790667L281.44811428571427,122.3776150833477L285.98760000000004,119.88011273470794L290.5270857142857,117.3826103860682L295.0665714285714,114.88510803742845L299.60605714285714,114.88510803742845L304.14554285714286,112.38760568878871L308.6850285714286,99.90009394558996L313.2245142857143,77.42257280783221L317.764,94.90508924831047L322.3034857142857,97.40259159695022L326.8429714285714,97.40259159695022L331.38245714285716,87.41258220239122L335.9219428571429,84.91507985375148L340.4614285714286,87.41258220239122L345.00091428571426,94.90508924831047L349.54040000000003,72.42756811055273L354.07988571428575,77.42257280783221L358.6193714285714,84.91507985375148L363.15885714285713,62.437558715993724L367.6983428571429,69.93006576191299L372.2378285714286,54.945051670074506L376.7773142857143,67.43256341327324L381.3168,59.94005636735399L385.8562857142857,59.94005636735399L390.3957714285715,69.93006576191299L394.93525714285715,57.44255401871425L399.47474285714287,49.95004697279498L404.01422857142853,62.437558715993724L408.5537142857143,47.45254462415524L413.0932,57.44255401871425L417.63268571428574,57.44255401871425L422.1721714285714,39.96003757823602L426.7116571428571,54.945051670074506L431.2511428571429,47.45254462415524L435.7906285714286,49.95004697279498L440.3301142857143,42.45753992687576L444.8696,42.45753992687576L449.40908571428577,52.447549321434764L453.9485714285714,47.45254462415524L458.48805714285714,42.45753992687576L463.02754285714286,47.45254462415524L467.56702857142864,47.45254462415524L472.1065142857143,52.447549321434764L476.646,42.45753992687576L481.18548571428573,42.45753992687576L485.7249714285714,34.96503288095649L490.26445714285717,37.46253522959628L494.8039428571429,34.96503288095649L499.3434285714286,44.9550422755155L503.88291428571426,34.96503288095649L508.42240000000004,29.970028183676973L512.9618857142857,44.9550422755155L517.5013714285715,44.9550422755155L522.0408571428571,22.47752113775775L526.5803428571429,27.47252583503723L531.1198285714286,42.45753992687576L535.6593142857143,42.45753992687576L540.1988,32.467530532316715L544.7382857142857,32.467530532316715L549.2777714285714,39.96003757823602L553.8172571428572,32.467530532316715L558.3567428571429,39.96003757823602L562.8962285714285,17.48251644047823L567.4357142857143,39.96003757823602L571.9752000000001,32.467530532316715L576.5146857142857,24.97502348639749L581.0541714285714,44.9550422755155L585.5936571428572,59.94005636735399L590.1331428571428,27.47252583503723" style="fill: none;" fill="none"></path></g><g><path stroke="rgb(249, 171, 0)" stroke-width="2px" d="M49.93434285714286,379.62037731300705L54.47382857142858,329.6703100204468L59.01331428571429,362.1378608725288L63.552800000000005,319.6803006258878L68.09228571428571,307.19278888268906L72.63177142857143,302.19778418540955L77.17125714285714,294.7052771394903L81.71074285714285,304.6952865340493L86.25022857142856,294.7052771394903L90.78971428571428,302.19778418540955L95.3292,309.6902912313288L99.86868571428572,312.18779357996857L104.40817142857144,314.6852959286083L108.94765714285715,294.7052771394903L113.48714285714286,312.18779357996857L118.02662857142857,317.1827982772481L122.56611428571429,309.6902912313288L127.10560000000001,304.6952865340493L131.64508571428573,302.19778418540955L136.18457142857142,294.7052771394903L140.72405714285713,302.19778418540955L145.26354285714285,297.2027794881301L149.80302857142857,292.2077747908506L154.3425142857143,277.22276069901204L158.882,277.22276069901204L163.4214857142857,272.2277560017326L167.96097142857144,269.73025365309286L172.50045714285713,272.2277560017326L177.03994285714288,269.73025365309286L181.57942857142856,254.74523956125435L186.1189142857143,267.2327513044531L190.6584,249.7502348639748L195.19788571428575,257.2427419098941L199.73737142857144,247.25273251533508L204.27685714285715,242.2577278180556L208.81634285714287,222.27770902893758L213.35582857142856,224.77521137757736L217.8953142857143,214.78520198301837L222.4348,222.27770902893758L226.9742857142857,197.30268554254013L231.51377142857143,199.8001878911799L236.05325714285715,192.30768084526062L240.59274285714287,184.8151737993414L245.13222857142858,182.31767145070165L249.6717142857143,169.8301597075029L254.21120000000002,182.31767145070165L258.75068571428574,192.30768084526062L263.29017142857145,179.82016910206193L267.8296571428572,157.34264796430418L272.36914285714283,167.33265735886317L276.9086285714286,144.85513622110543L281.44811428571427,149.85014091838494L285.98760000000004,149.85014091838494L290.5270857142857,142.35763387246567L295.0665714285714,137.36262917518619L299.60605714285714,132.36762447790667L304.14554285714286,139.86013152382594L308.6850285714286,139.86013152382594L313.2245142857143,117.3826103860682L317.764,102.3975962942297L322.3034857142857,114.88510803742845L326.8429714285714,107.39260099150923L331.38245714285716,114.88510803742845L335.9219428571429,109.89010334014897L340.4614285714286,114.88510803742845L345.00091428571426,94.90508924831047L349.54040000000003,84.91507985375148L354.07988571428575,92.4075868996707L358.6193714285714,92.4075868996707L363.15885714285713,79.920075156472L367.6983428571429,94.90508924831047L372.2378285714286,94.90508924831047L376.7773142857143,77.42257280783221L381.3168,72.42756811055273L385.8562857142857,74.92507045919247L390.3957714285715,64.93506106463352L394.93525714285715,77.42257280783221L399.47474285714287,82.41757750511174L404.01422857142853,64.93506106463352L408.5537142857143,67.43256341327324L413.0932,59.94005636735399L417.63268571428574,74.92507045919247L422.1721714285714,59.94005636735399L426.7116571428571,59.94005636735399L431.2511428571429,44.9550422755155L435.7906285714286,49.95004697279498L440.3301142857143,54.945051670074506L444.8696,52.447549321434764L449.40908571428577,52.447549321434764L453.9485714285714,52.447549321434764L458.48805714285714,44.9550422755155L463.02754285714286,59.94005636735399L467.56702857142864,42.45753992687576L472.1065142857143,54.945051670074506L476.646,54.945051670074506L481.18548571428573,62.437558715993724L485.7249714285714,49.95004697279498L490.26445714285717,69.93006576191299L494.8039428571429,42.45753992687576L499.3434285714286,54.945051670074506L503.88291428571426,52.447549321434764L508.42240000000004,42.45753992687576L512.9618857142857,42.45753992687576L517.5013714285715,32.467530532316715L522.0408571428571,47.45254462415524L526.5803428571429,44.9550422755155L531.1198285714286,52.447549321434764L535.6593142857143,49.95004697279498L540.1988,44.9550422755155L544.7382857142857,37.46253522959628L549.2777714285714,47.45254462415524L553.8172571428572,39.96003757823602L558.3567428571429,37.46253522959628L562.8962285714285,34.96503288095649L567.4357142857143,34.96503288095649L571.9752000000001,37.46253522959628L576.5146857142857,34.96503288095649L581.0541714285714,44.9550422755155L585.5936571428572,32.467530532316715L590.1331428571428,39.96003757823602" style="fill: none;" fill="none"></path></g><g><path stroke="rgb(229, 37, 146)" stroke-width="2px" d="M49.93434285714286,344.6553444320505L54.47382857142858,344.6553444320505L59.01331428571429,344.6553444320505L63.552800000000005,344.6553444320505L68.09228571428571,344.6553444320505L72.63177142857143,344.6553444320505L77.17125714285714,344.6553444320505L81.71074285714285,344.6553444320505L86.25022857142856,332.1678123690865L90.78971428571428,312.18779357996857L95.3292,279.72026304765177L99.86868571428572,244.75523016669536L104.40817142857144,222.27770902893758L108.94765714285715,217.28270433165812L113.48714285714286,224.77521137757736L118.02662857142857,197.30268554254013L122.56611428571429,207.29269493709916L127.10560000000001,194.80518319390035L131.64508571428573,229.77021607485685L136.18457142857142,227.27271372621712L140.72405714285713,237.26272312077612L145.26354285714285,229.77021607485685L149.80302857142857,237.26272312077612L154.3425142857143,247.25273251533508L158.882,249.7502348639748L163.4214857142857,247.25273251533508L167.96097142857144,262.2377466071736L172.50045714285713,249.7502348639748L177.03994285714288,252.2477372126146L181.57942857142856,242.2577278180556L186.1189142857143,247.25273251533508L190.6584,237.26272312077612L195.19788571428575,229.77021607485685L199.73737142857144,219.78020668029785L204.27685714285715,232.26771842349663L208.81634285714287,227.27271372621712L213.35582857142856,232.26771842349663L217.8953142857143,219.78020668029785L222.4348,222.27770902893758L226.9742857142857,219.78020668029785L231.51377142857143,227.27271372621712L236.05325714285715,207.29269493709916L240.59274285714287,192.30768084526062L245.13222857142858,209.79019728573888L249.6717142857143,204.7951925884594L254.21120000000002,192.30768084526062L258.75068571428574,204.7951925884594L263.29017142857145,187.31267614798114L267.8296571428572,184.8151737993414L272.36914285714283,182.31767145070165L276.9086285714286,177.32266675342214L281.44811428571427,169.8301597075029L285.98760000000004,169.8301597075029L290.5270857142857,164.83515501022342L295.0665714285714,184.8151737993414L299.60605714285714,172.32766205614266L304.14554285714286,147.35263856974515L308.6850285714286,147.35263856974515L313.2245142857143,177.32266675342214L317.764,157.34264796430418L322.3034857142857,157.34264796430418L326.8429714285714,152.3476432670247L331.38245714285716,144.85513622110543L335.9219428571429,137.36262917518619L340.4614285714286,139.86013152382594L345.00091428571426,132.36762447790667L349.54040000000003,142.35763387246567L354.07988571428575,114.88510803742845L358.6193714285714,124.87511743198745L363.15885714285713,144.85513622110543L367.6983428571429,139.86013152382594L372.2378285714286,107.39260099150923L376.7773142857143,109.89010334014897L381.3168,124.87511743198745L385.8562857142857,109.89010334014897L390.3957714285715,109.89010334014897L394.93525714285715,119.88011273470794L399.47474285714287,99.90009394558996L404.01422857142853,119.88011273470794L408.5537142857143,114.88510803742845L413.0932,92.4075868996707L417.63268571428574,99.90009394558996L422.1721714285714,89.91008455103096L426.7116571428571,79.920075156472L431.2511428571429,97.40259159695022L435.7906285714286,94.90508924831047L440.3301142857143,92.4075868996707L444.8696,82.41757750511174L449.40908571428577,87.41258220239122L453.9485714285714,69.93006576191299L458.48805714285714,77.42257280783221L463.02754285714286,82.41757750511174L467.56702857142864,87.41258220239122L472.1065142857143,72.42756811055273L476.646,62.437558715993724L481.18548571428573,77.42257280783221L485.7249714285714,69.93006576191299L490.26445714285717,87.41258220239122L494.8039428571429,64.93506106463352L499.3434285714286,89.91008455103096L503.88291428571426,67.43256341327324L508.42240000000004,62.437558715993724L512.9618857142857,74.92507045919247L517.5013714285715,52.447549321434764L522.0408571428571,67.43256341327324L526.5803428571429,59.94005636735399L531.1198285714286,57.44255401871425L535.6593142857143,64.93506106463352L540.1988,69.93006576191299L544.7382857142857,62.437558715993724L549.2777714285714,59.94005636735399L553.8172571428572,77.42257280783221L558.3567428571429,64.93506106463352L562.8962285714285,44.9550422755155L567.4357142857143,67.43256341327324L571.9752000000001,47.45254462415524L576.5146857142857,64.93506106463352L581.0541714285714,57.44255401871425L585.5936571428572,49.95004697279498L590.1331428571428,42.45753992687576" style="fill: none;" fill="none"></path></g><g><path stroke="rgb(18, 181, 203)" stroke-width="2px" d="M49.93434285714286,337.162817066366L54.47382857142858,327.17280767180705L59.01331428571429,327.17280767180705L63.552800000000005,327.17280767180705L68.09228571428571,274.7252583503723L72.63177142857143,269.73025365309286L77.17125714285714,252.2477372126146L81.71074285714285,254.74523956125435L86.25022857142856,269.73025365309286L90.78971428571428,259.7402442585339L95.3292,254.74523956125435L99.86868571428572,269.73025365309286L104.40817142857144,267.2327513044531L108.94765714285715,257.2427419098941L113.48714285714286,237.26272312077612L118.02662857142857,244.75523016669536L122.56611428571429,222.27770902893758L127.10560000000001,239.76022546941587L131.64508571428573,244.75523016669536L136.18457142857142,222.27770902893758L140.72405714285713,207.29269493709916L145.26354285714285,229.77021607485685L149.80302857142857,207.29269493709916L154.3425142857143,212.28769963437864L158.882,237.26272312077612L163.4214857142857,232.26771842349663L167.96097142857144,227.27271372621712L172.50045714285713,224.77521137757736L177.03994285714288,244.75523016669536L181.57942857142856,214.78520198301837L186.1189142857143,244.75523016669536L190.6584,237.26272312077612L195.19788571428575,244.75523016669536L199.73737142857144,242.2577278180556L204.27685714285715,242.2577278180556L208.81634285714287,224.77521137757736L213.35582857142856,232.26771842349663L217.8953142857143,222.27770902893758L222.4348,237.26272312077612L226.9742857142857,222.27770902893758L231.51377142857143,204.7951925884594L236.05325714285715,209.79019728573888L240.59274285714287,207.29269493709916L245.13222857142858,189.8101784966209L249.6717142857143,202.29769023981962L254.21120000000002,189.8101784966209L258.75068571428574,197.30268554254013L263.29017142857145,172.32766205614266L267.8296571428572,172.32766205614266L272.36914285714283,169.8301597075029L276.9086285714286,167.33265735886317L281.44811428571427,152.3476432670247L285.98760000000004,174.82516440478238L290.5270857142857,149.85014091838494L295.0665714285714,137.36262917518619L299.60605714285714,142.35763387246567L304.14554285714286,134.86512682654643L308.6850285714286,139.86013152382594L313.2245142857143,137.36262917518619L317.764,139.86013152382594L322.3034857142857,129.87012212926695L326.8429714285714,124.87511743198745L331.38245714285716,134.86512682654643L335.9219428571429,127.37261978062719L340.4614285714286,109.89010334014897L345.00091428571426,109.89010334014897L349.54040000000003,132.36762447790667L354.07988571428575,127.37261978062719L358.6193714285714,104.89509864286944L363.15885714285713,104.89509864286944L367.6983428571429,97.40259159695022L372.2378285714286,109.89010334014897L376.7773142857143,97.40259159695022L381.3168,97.40259159695022L385.8562857142857,99.90009394558996L390.3957714285715,92.4075868996707L394.93525714285715,92.4075868996707L399.47474285714287,92.4075868996707L404.01422857142853,77.42257280783221L408.5537142857143,77.42257280783221L413.0932,84.91507985375148L417.63268571428574,79.920075156472L422.1721714285714,79.920075156472L426.7116571428571,69.93006576191299L431.2511428571429,89.91008455103096L435.7906285714286,87.41258220239122L440.3301142857143,67.43256341327324L444.8696,69.93006576191299L449.40908571428577,72.42756811055273L453.9485714285714,67.43256341327324L458.48805714285714,74.92507045919247L463.02754285714286,59.94005636735399L467.56702857142864,72.42756811055273L472.1065142857143,47.45254462415524L476.646,64.93506106463352L481.18548571428573,57.44255401871425L485.7249714285714,59.94005636735399L490.26445714285717,54.945051670074506L494.8039428571429,72.42756811055273L499.3434285714286,49.95004697279498L503.88291428571426,44.9550422755155L508.42240000000004,47.45254462415524L512.9618857142857,64.93506106463352L517.5013714285715,54.945051670074506L522.0408571428571,59.94005636735399L526.5803428571429,47.45254462415524L531.1198285714286,69.93006576191299L535.6593142857143,49.95004697279498L540.1988,59.94005636735399L544.7382857142857,39.96003757823602L549.2777714285714,39.96003757823602L553.8172571428572,54.945051670074506L558.3567428571429,44.9550422755155L562.8962285714285,57.44255401871425L567.4357142857143,49.95004697279498L571.9752000000001,54.945051670074506L576.5146857142857,42.45753992687576L581.0541714285714,57.44255401871425L585.5936571428572,54.945051670074506L590.1331428571428,37.46253522959628" style="fill: none;" fill="none"></path></g></g></g></g></g></g><g transform="translate(52, 375)" clip-path="url(#clip_1)"><clipPath id="clip_1"><rect width="635" height="25"></rect></clipPath><g><g><line x1="0" y1="0" x2="0" y2="5" style="visibility: inherit;" fill="rgb(0, 0, 0)" stroke="rgb(204, 204, 204)" stroke-width="1px"></line><line x1="45.39485714285714" y1="0" x2="45.39485714285714" y2="5" style="visibility: inherit;" fill="rgb(0, 0, 0)" stroke="rgb(204, 204, 204)" stroke-width="1px"></line><line x1="90.78971428571428" y1="0" x2="90.78971428571428" y2="5" style="visibility: inherit;" fill="rgb(0, 0, 0)" stroke="rgb(204, 204, 204)" stroke-width="1px"></line><line x1="136.18457142857142" y1="0" x2="136.18457142857142" y2="5" style="visibility: inherit;" fill="rgb(0, 0, 0)" stroke="rgb(204, 204, 204)" stroke-width="1px"></line><line x1="181.57942857142856" y1="0" x2="181.57942857142856" y2="5" style="visibility: inherit;" fill="rgb(0, 0, 0)" stroke="rgb(204, 204, 204)" stroke-width="1px"></line><line x1="226.9742857142857" y1="0" x2="226.9742857142857" y2="5" style="visibility: inherit;" fill="rgb(0, 0, 0)" stroke="rgb(204, 204, 204)" stroke-width="1px"></line><line x1="272.36914285714283" y1="0" x2="272.36914285714283" y2="5" style="visibility: inherit;" fill="rgb(0, 0, 0)" stroke="rgb(204, 204, 204)" stroke-width="1px"></line><line x1="317.764" y1="0" x2="317.764" y2="5" style="visibility: inherit;" fill="rgb(0, 0, 0)" stroke="rgb(204, 204, 204)" stroke-width="1px"></line><line x1="363.15885714285713" y1="0" x2="363.15885714285713" y2="5" style="visibility: inherit;" fill="rgb(0, 0, 0)" stroke="rgb(204, 204, 204)" stroke-width="1px"></line><line x1="408.5537142857143" y1="0" x2="408.5537142857143" y2="5" style="visibility: inherit;" fill="rgb(0, 0, 0)" stroke="rgb(204, 204, 204)" stroke-width="1px"></line><line x1="453.9485714285714" y1="0" x2="453.9485714285714" y2="5" style="visibility: inherit;" fill="rgb(0, 0, 0)" stroke="rgb(204, 204, 204)" stroke-width="1px"></line><line x1="499.3434285714286" y1="0" x2="499.3434285714286" y2="5" style="visibility: inherit;" fill="rgb(0, 0, 0)" stroke="rgb(204, 204, 204)" stroke-width="1px"></line><line x1="544.7382857142857" y1="0" x2="544.7382857142857" y2="5" style="visibility: inherit;" fill="rgb(0, 0, 0)" stroke="rgb(204, 204, 204)" stroke-width="1px"></line><line x1="590.1331428571428" y1="0" x2="590.1331428571428" y2="5" style="visibility: inherit;" fill="rgb(0, 0, 0)" stroke="rgb(204, 204, 204)" stroke-width="1px"></line><line x1="635.528" y1="0" x2="635.528" y2="5" style="visibility: inherit;" fill="rgb(0, 0, 0)" stroke="rgb(204, 204, 204)" stroke-width="1px"></line></g><g transform="translate(0, 8)"><text x="0" y="0" dx="0em" dy="0.95em" style="text-anchor: middle; visibility: hidden; font-family: Roboto, sans-serif; font-size: 12px; font-weight: 200;" fill="rgb(33, 33, 33)" stroke="none" stroke-width="1px">-10</text><text x="45.39485714285714" y="0" dx="0em" dy="0.95em" style="text-anchor: middle; visibility: inherit; font-family: Roboto, sans-serif; font-size: 12px; font-weight: 200;" fill="rgb(33, 33, 33)" stroke="none" stroke-width="1px">0</text><text x="90.78971428571428" y="0" dx="0em" dy="0.95em" style="text-anchor: middle; visibility: inherit; font-family: Roboto, sans-serif; font-size: 12px; font-weight: 200;" fill="rgb(33, 33, 33)" stroke="none" stroke-width="1px">10</text><text x="136.18457142857142" y="0" dx="0em" dy="0.95em" style="text-anchor: middle; visibility: inherit; font-family: Roboto, sans-serif; font-size: 12px; font-weight: 200;" fill="rgb(33, 33, 33)" stroke="none" stroke-width="1px">20</text><text x="181.57942857142856" y="0" dx="0em" dy="0.95em" style="text-anchor: middle; visibility: inherit; font-family: Roboto, sans-serif; font-size: 12px; font-weight: 200;" fill="rgb(33, 33, 33)" stroke="none" stroke-width="1px">30</text><text x="226.9742857142857" y="0" dx="0em" dy="0.95em" style="text-anchor: middle; visibility: inherit; font-family: Roboto, sans-serif; font-size: 12px; font-weight: 200;" fill="rgb(33, 33, 33)" stroke="none" stroke-width="1px">40</text><text x="272.36914285714283" y="0" dx="0em" dy="0.95em" style="text-anchor: middle; visibility: inherit; font-family: Roboto, sans-serif; font-size: 12px; font-weight: 200;" fill="rgb(33, 33, 33)" stroke="none" stroke-width="1px">50</text><text x="317.764" y="0" dx="0em" dy="0.95em" style="text-anchor: middle; visibility: inherit; font-family: Roboto, sans-serif; font-size: 12px; font-weight: 200;" fill="rgb(33, 33, 33)" stroke="none" stroke-width="1px">60</text><text x="363.15885714285713" y="0" dx="0em" dy="0.95em" style="text-anchor: middle; visibility: inherit; font-family: Roboto, sans-serif; font-size: 12px; font-weight: 200;" fill="rgb(33, 33, 33)" stroke="none" stroke-width="1px">70</text><text x="408.5537142857143" y="0" dx="0em" dy="0.95em" style="text-anchor: middle; visibility: inherit; font-family: Roboto, sans-serif; font-size: 12px; font-weight: 200;" fill="rgb(33, 33, 33)" stroke="none" stroke-width="1px">80</text><text x="453.9485714285714" y="0" dx="0em" dy="0.95em" style="text-anchor: middle; visibility: inherit; font-family: Roboto, sans-serif; font-size: 12px; font-weight: 200;" fill="rgb(33, 33, 33)" stroke="none" stroke-width="1px">90</text><text x="499.3434285714286" y="0" dx="0em" dy="0.95em" style="text-anchor: middle; visibility: inherit; font-family: Roboto, sans-serif; font-size: 12px; font-weight: 200;" fill="rgb(33, 33, 33)" stroke="none" stroke-width="1px">100</text><text x="544.7382857142857" y="0" dx="0em" dy="0.95em" style="text-anchor: middle; visibility: inherit; font-family: Roboto, sans-serif; font-size: 12px; font-weight: 200;" fill="rgb(33, 33, 33)" stroke="none" stroke-width="1px">110</text><text x="590.1331428571428" y="0" dx="0em" dy="0.95em" style="text-anchor: middle; visibility: inherit; font-family: Roboto, sans-serif; font-size: 12px; font-weight: 200;" fill="rgb(33, 33, 33)" stroke="none" stroke-width="1px">120</text><text x="635.528" y="0" dx="0em" dy="0.95em" style="text-anchor: middle; visibility: hidden; font-family: Roboto, sans-serif; font-size: 12px; font-weight: 200;" fill="rgb(33, 33, 33)" stroke="none" stroke-width="1px">130</text></g><line x1="0" y1="0" x2="635.528" y2="0" fill="rgb(0, 0, 0)" stroke="rgb(204, 204, 204)" stroke-width="1px"></line></g></g></g></g></svg>